<svg width="50" height="51" viewBox="0 0 50 51" fill="none" xmlns="http://www.w3.org/2000/svg">
<g clip-path="url(#clip0_3_571)">
<path d="M49.581 46.1491L46.027 43.6538C45.7247 43.4417 45.3335 43.4156 45.0059 43.5859C44.6782 43.7562 44.4747 44.0913 44.4747 44.4606V46.2225H37.3056V36.4226H38.1662C41.1703 36.4226 43.6143 33.9787 43.6143 30.9746V30.7032C43.6143 29.8092 42.8868 29.0817 41.9928 29.0817H41.2867C39.7168 29.0817 38.3007 29.7501 37.3056 30.8161V24.0586H39.4166C43.0145 24.0586 45.9417 21.1315 45.9417 17.5336C45.9417 16.8326 45.3714 16.2622 44.6704 16.2622H41.8259C41.7929 16.2622 41.7601 16.2632 41.7274 16.2643L41.6924 16.2653C41.2874 16.2741 40.9663 16.6097 40.9752 17.0147C40.9841 17.4196 41.3186 17.7436 41.7245 17.7319L41.7769 17.7303C41.7933 17.7298 41.8095 17.7291 41.8259 17.7291H44.471C44.3677 20.4278 42.1402 22.5916 39.4166 22.5916H37.3056V22.2494C37.3056 20.8546 37.9362 19.559 39.0359 18.6945C39.3544 18.4442 39.4096 17.9831 39.1593 17.6645C38.909 17.346 38.4478 17.2909 38.1294 17.5412C37.3401 18.1617 36.7351 18.9512 36.345 19.8377C35.5669 18.8892 34.3864 18.2827 33.0667 18.2827H31.7165C30.8691 18.2827 30.1797 18.9721 30.1797 19.8195C30.1797 22.1569 32.0813 24.0585 34.4186 24.0585H35.8388V34.5297V35.689V46.2223H30.9794C30.5742 46.2223 30.2459 46.5507 30.2459 46.9557C30.2459 47.3608 30.5742 47.6892 30.9794 47.6892H44.4748V49.4511C44.4748 49.8203 44.6783 50.1556 45.006 50.3259C45.1498 50.4006 45.3057 50.4375 45.4611 50.4375C45.6598 50.4375 45.8576 50.3771 46.0271 50.258L49.5811 47.7627C49.8438 47.5783 50.0005 47.2766 50.0005 46.9558C50.0004 46.6352 49.8436 46.3336 49.581 46.1491ZM31.6467 19.8197C31.6467 19.7812 31.678 19.7499 31.7165 19.7499H33.0667C34.5952 19.7499 35.8388 20.9934 35.8388 22.5219V22.5918H34.4186C32.8902 22.5918 31.6467 21.3483 31.6467 19.8197ZM41.2867 30.5488H41.9928C42.078 30.5488 42.1473 30.618 42.1473 30.7033V30.9747C42.1473 33.1699 40.3614 34.9558 38.1662 34.9558H37.3056V34.53C37.3056 32.3347 39.0915 30.5488 41.2867 30.5488ZM45.9417 48.5257V45.3864L48.1772 46.956L45.9417 48.5257Z" fill="#F7C35F"/>
<path d="M27.853 46.2225H25.7826V37.452H26.8607C29.6122 37.452 31.8506 35.2135 31.8506 32.4622V31.6166C31.8506 30.6794 31.0882 29.9171 30.1511 29.9171H29.3055C27.3091 29.9171 25.5836 31.0961 24.7865 32.794C24.1386 32.121 23.2298 31.7009 22.2241 31.7009H21.2989C20.5999 31.7009 20.0312 32.2696 20.0312 32.9686V33.8937C20.0312 35.8558 21.6275 37.4521 23.5897 37.4521H24.3156V46.2226H15.2391V43.7353H15.7823C18.0515 43.7353 19.8977 41.8891 19.8977 39.6198V38.7131C19.8977 37.9033 19.2389 37.2443 18.4289 37.2443H17.8876C16.3411 37.2443 14.9918 38.1021 14.2886 39.3666C13.7073 38.7892 12.9072 38.4318 12.025 38.4318H11.3126C10.6792 38.4318 10.164 38.9471 10.164 39.5803V40.5212C10.164 42.2934 11.6058 43.7352 13.378 43.7352H13.7721V46.2225H4.512V39.6856H5.25976C5.66494 39.6856 5.99324 39.3572 5.99324 38.9521C5.99324 38.5471 5.66494 38.2187 5.25976 38.2187H4.512V32.6292H5.25976C5.66494 32.6292 5.99324 32.3008 5.99324 31.8957C5.99324 31.4907 5.66494 31.1623 5.25976 31.1623H4.512V25.5729H5.25976C5.66494 25.5729 5.99324 25.2445 5.99324 24.8394C5.99324 24.4344 5.66494 24.106 5.25976 24.106H4.512V18.5166H5.25976C5.66494 18.5166 5.99324 18.1882 5.99324 17.7831C5.99324 17.378 5.66494 17.0496 5.25976 17.0496H4.512V11.4602H5.25976C5.66494 11.4602 5.99324 11.1318 5.99324 10.7267C5.99324 10.3216 5.66494 9.99324 5.25976 9.99324H4.512V6.08769H6.27392C6.64311 6.08769 6.97826 5.88417 7.14853 5.55655C7.31889 5.22892 7.29298 4.83763 7.08076 4.53524L4.58544 0.981369C4.4011 0.718879 4.09959 0.56211 3.77881 0.562012C3.77871 0.562012 3.77861 0.562012 3.77852 0.562012C3.45784 0.562012 3.15623 0.718684 2.97168 0.981369L0.476373 4.53524C0.264152 4.83744 0.23804 5.22873 0.408404 5.55645C0.578767 5.88417 0.91392 6.08769 1.2832 6.08769H3.04503V46.2225H0.733483C0.328307 46.2225 0 46.5509 0 46.956C0 47.3611 0.328307 47.6895 0.733483 47.6895H27.853C28.2582 47.6895 28.5865 47.3611 28.5865 46.956C28.5865 46.5509 28.2581 46.2225 27.853 46.2225ZM25.7826 34.9069C25.7826 32.9644 27.3629 31.3841 29.3055 31.3841H30.1511C30.2794 31.3841 30.3836 31.4884 30.3836 31.6166V32.4622C30.3836 34.4047 28.8033 35.9851 26.8607 35.9851H25.7826V35.2592V34.9069ZM21.4983 33.8937V33.1678H22.2242C23.3774 33.1678 24.3157 34.1061 24.3157 35.2593V35.9852H23.5898C22.4366 35.9852 21.4983 35.0469 21.4983 33.8937ZM15.2392 41.3598C15.2392 39.8994 16.4273 38.7114 17.8877 38.7114L18.4309 38.7132V39.6199C18.4309 41.0803 17.2428 42.2685 15.7824 42.2685H15.2392V41.646V41.3598ZM11.6312 40.5213V39.8988H12.0252C12.9886 39.8988 13.7723 40.6826 13.7723 41.6459V42.2684H13.3781C12.4148 42.2684 11.6312 41.4846 11.6312 40.5213ZM3.77852 2.38506L5.34827 4.62072H2.20876L3.77852 2.38506Z" fill="#F7C35F"/>
<path d="M36.1457 4.99572L33.1076 4.62604C32.7057 4.57715 32.3397 4.8634 32.2908 5.26564C32.2419 5.66779 32.5282 6.03345 32.9303 6.08235L34.2191 6.23912L21.0376 16.6342L20.4627 15.4049C20.3669 15.1999 20.1818 15.0506 19.9611 15.0004C19.7407 14.9505 19.509 15.0045 19.3338 15.1479L8.05033 24.3787C7.73679 24.6353 7.69053 25.0974 7.94705 25.4109C8.09209 25.5881 8.30284 25.68 8.51516 25.68C8.67858 25.68 8.84298 25.6257 8.97921 25.5142L19.5332 16.8801L20.1007 18.0939C20.1955 18.2968 20.3779 18.4452 20.5958 18.4969C20.8136 18.5485 21.0433 18.4979 21.2193 18.3591L35.3238 7.23646V8.95594C35.3238 9.36102 35.6521 9.68943 36.0573 9.68943C36.4624 9.68943 36.7908 9.36102 36.7908 8.95594V5.72392C36.7908 5.31503 36.4645 5.03464 36.1457 4.99572Z" fill="#F7C35F"/>
</g>
<defs>
<clipPath id="clip0_3_571">
<rect width="50" height="50" fill="white" transform="translate(0 0.5)"/>
</clipPath>
</defs>
</svg>
